<svg xmlns="http://www.w3.org/2000/svg" width="163.946" height="43.146" viewBox="0 0 163.946 43.146">

  <path id="Union_1" data-name="Union 1" class="cls-1" d="M12.915-10.242a1.254,1.254,0,0,1-.515-.644,3.551,3.551,0,0,1-.094-.887c0-2.578,2.2-8.139,6.646-16.72.281-.564.608-1.168.936-1.773-.047,0-.094-.04-.187-.08-.094,0-.094-.041-.14-.041a9.675,9.675,0,0,1-.655.846c-3.136,3.989-5.8,6.608-7.956,7.9a7.123,7.123,0,0,1-3.463,1.088A4.665,4.665,0,0,1,5.614-21a4.226,4.226,0,0,1-2.339-3.828A21.573,21.573,0,0,1-3.7-23.658c-.562,0-.936-.041-1.17-.041a11.321,11.321,0,0,1-8.7,4.15,8.129,8.129,0,0,1-3.416-.6c-.094-.081-.094-.122-.14-.122-1.4-.725-2.106-1.611-2.106-2.7A3.462,3.462,0,0,1-19-24.142a20.551,20.551,0,0,1-4.446.483c-.561,0-.935-.041-1.169-.041a11.321,11.321,0,0,1-8.7,4.15,7.983,7.983,0,0,1-3.416-.6c-.094-.081-.094-.122-.14-.122-1.4-.725-2.106-1.611-2.106-2.7,0-1.49,1.123-3.1,3.37-4.794a12.842,12.842,0,0,1,1.638-1.088.272.272,0,0,0-.047-.161v-.161c0-1.128.889-1.894,2.714-2.336a9.152,9.152,0,0,1,2.387-.283,8.1,8.1,0,0,1,4.586,1.088,3.426,3.426,0,0,1,1.684,2.941,4.222,4.222,0,0,1-.7,2.216,23.035,23.035,0,0,0,7.3-2.1.628.628,0,0,0,.187-.121,12.842,12.842,0,0,1,1.638-1.088.272.272,0,0,0-.047-.161v-.161c0-1.128.889-1.894,2.714-2.336A9.152,9.152,0,0,1-9.174-31.8a8.1,8.1,0,0,1,4.586,1.088A3.425,3.425,0,0,1-2.9-27.768a4.216,4.216,0,0,1-.7,2.216,22.116,22.116,0,0,0,7.675-2.3,10.244,10.244,0,0,1,5.662-4.633,12,12,0,0,1,3.791-.6,13.245,13.245,0,0,1,3.7.524A215.923,215.923,0,0,0,29.81-50.128l.094-.081a.721.721,0,0,1,.515-.2,3.635,3.635,0,0,1,1.919.685c.421.323.608.564.608.766-4.212,7.252-8.237,14.786-11.981,22.643Q15.208-14.23,15.208-10.6a1.818,1.818,0,0,0,.094.444.868.868,0,0,1,.047.322.535.535,0,0,1-.515.282A3.5,3.5,0,0,1,12.915-10.242ZM-16.194-22.49a3.156,3.156,0,0,0-.14.564,1.382,1.382,0,0,0,0,.644,3.691,3.691,0,0,0,1.17.161,9.394,9.394,0,0,0,5.569-2.3c.374-.283.749-.6,1.123-.886a11.862,11.862,0,0,1-4.165-2.175A9.722,9.722,0,0,0-16.194-22.49Zm-19.749,0a3.157,3.157,0,0,0-.14.564,1.382,1.382,0,0,0,0,.644,4.191,4.191,0,0,0,1.217.161,9.394,9.394,0,0,0,5.569-2.3c.374-.283.7-.6,1.076-.886a11.862,11.862,0,0,1-4.165-2.175A9.722,9.722,0,0,0-35.942-22.49ZM8.8-28.453a8.421,8.421,0,0,0-2.9,4.714,2.136,2.136,0,0,0-.047.524,1.736,1.736,0,0,0,.234,1.007q3.159-.666,10.109-9.066a5.721,5.721,0,0,0-.749-.04A9.668,9.668,0,0,0,8.8-28.453ZM-10.016-29.46a3,3,0,0,0-.8.443c.608.4.936.685.983.886,0,.121-.281.282-.8.444-.281.121-.515.2-.608.241.421,1.007,1.685,1.652,3.791,1.975a6,6,0,0,0,1.685-3.587,1.417,1.417,0,0,0-.281-.926,1.423,1.423,0,0,0-.515-.081A9.669,9.669,0,0,0-10.016-29.46Zm-19.7,0a3,3,0,0,0-.8.443c.608.4.936.685.983.886,0,.121-.281.282-.8.444-.281.121-.515.2-.608.241.421,1.007,1.685,1.652,3.791,1.975a6.289,6.289,0,0,0,1.685-3.587,1.417,1.417,0,0,0-.281-.926,1.423,1.423,0,0,0-.515-.081A9.669,9.669,0,0,0-29.718-29.46Zm-98.193,14.8A2.784,2.784,0,0,1-131-17.729c0-3.429,3.892-12.681,11.677-27.677a3.373,3.373,0,0,1-.24-.4,24.873,24.873,0,0,1-1.4-2.951,1.25,1.25,0,0,1-.08-.319c.04-.4.121-.758.16-1.117.321.2.723.359.883.638.481.877,1,1.715,1.525,2.552.04-.12.121-.2.161-.319,1.564-2.951,2.447-4.667,2.648-5.185a.559.559,0,0,1,.4-.2,2.6,2.6,0,0,1,1.645.717,1.432,1.432,0,0,1,.441.718,12.717,12.717,0,0,1-1.645,3.549c-.441.758-.8,1.356-1.043,1.835s-.521,1-.762,1.475c.6.718,1.2,1.356,1.846,1.994a18.066,18.066,0,0,0,9.229,4.945,17.113,17.113,0,0,0,10.593-1.555,62.122,62.122,0,0,0,9.831-6.3,48.56,48.56,0,0,1,8.386-5.025,17.86,17.86,0,0,1,9.189-1.316,15.026,15.026,0,0,1,7.7,3.11,10.1,10.1,0,0,1,3.531,7.617,12.009,12.009,0,0,1-.963,5.664c-.642,1.4-.723,1.715-.642,1.754.16.041.762-1,2.246-2.472.161-.12.522-.518.923-.838a8.679,8.679,0,0,1,4.534-2.353,7.137,7.137,0,0,1,2.367.08c2.648.638,4.253,4.626,3.893,9.81a36.9,36.9,0,0,1,1.805-3.549,31.182,31.182,0,0,1,6.54-8.375c1.966-1.675,7.864-6.78,14.324-5.863a15.645,15.645,0,0,1,5.778,2.313,23.511,23.511,0,0,1,2.047,1.476c6.42,4.9,7.383,5.344,8.065,5.623a11.176,11.176,0,0,0,5.657.717c5.216-.8,9.711-5.942,10.513-6.979.321-.438.6-1.2,1.324-.638.522.4.442.8-.2,1.675C6.147-35.077-.032-35-.032-35s-.682,0-1.324-.041c-5.9-.279-12.759-5.144-12.759-5.144a23.1,23.1,0,0,0-4.815-3.03,14.472,14.472,0,0,0-3.411-1.117c-3.772-.518-7.383,2.233-8.747,3.27C-38.151-35.6-42.926-24.947-45.253-22.075A3.208,3.208,0,0,1-47.46-20.72a2.669,2.669,0,0,1-1.4-.319c-.441-.239-1.324-.958-1.083-3.869.12-1.236.32-1.515,1.283-5.144a10.954,10.954,0,0,0,.241-4.347,1.851,1.851,0,0,0-.923-1.436,2.085,2.085,0,0,0-1.043-.2c-1.324.04-5.577,2.632-8.346,8.734a39.786,39.786,0,0,1-4.534,7.377,2.116,2.116,0,0,1-1.525.958,2.359,2.359,0,0,1-1.4-.518,2.692,2.692,0,0,1-.923-3.39c1.084-1.834,2.247-3.629,3.491-5.343a22.278,22.278,0,0,0,3.451-6.461c1.6-5.264.121-10.887-4.253-13.36a10.493,10.493,0,0,0-6.741-1.156c-4.173.479-7.784,2.472-11.315,4.785-3.13,2.034-6.22,4.108-9.429,5.982a18.071,18.071,0,0,1-9.43,2.592A21.421,21.421,0,0,1-114.187-40.3a23.539,23.539,0,0,1-3.13-2.831q-7.524,14.776-9.831,21.057a18.606,18.606,0,0,0-1.283,5.224c1.6-.837,4.213-2.951,7.825-6.261,3.731-3.429,6.1-5.583,7.141-6.421.241-.2.482-.4.682-.558a12.059,12.059,0,0,1,1-1.037,13.024,13.024,0,0,1,5.016-3.071,6.4,6.4,0,0,1,.762-.159,1.49,1.49,0,0,1,.441-.04,3.837,3.837,0,0,1,2.889,1.237,2.221,2.221,0,0,1,.723,1.476,2.01,2.01,0,0,1-.562,1.275,5.5,5.5,0,0,1-1.445,1.2q-.9.539-1.926,1.076a19.346,19.346,0,0,1-2.087.917q-1.023.42-1.926.718c-.562.2-1.043.359-1.4.479l-.562.159q-.482.12-.6.957a.979.979,0,0,0-.04.319c.04.718.481,1.156,1.364,1.276a3.97,3.97,0,0,0,.762.04c3.29,0,7.865-1.795,13.763-5.423l.963-.6a18.889,18.889,0,0,1,4.855-3.788A10.432,10.432,0,0,1-87.946-34.2a4.54,4.54,0,0,1,.682-.08,4.268,4.268,0,0,1,2.969,1.157,2.066,2.066,0,0,1,.723,1.436,1.8,1.8,0,0,1-.321.877c-.883,1.156-3.691,2.154-8.386,2.992-.4.04-.762.12-1.083.159-1.444,1.595-2.127,2.831-2.167,3.709.04.8.682,1.2,1.885,1.2h.041q5.116-.059,14.806-5.623c1.485-.837,2.528-1.475,3.05-1.834a.753.753,0,0,1,.281-.08,2.128,2.128,0,0,1,1.484.838,1.1,1.1,0,0,1,.4.718.4.4,0,0,1-.16.279,37.674,37.674,0,0,1-3.731,2.273c-6.14,3.43-10.914,5.185-14.405,5.225h-.08a7.5,7.5,0,0,1-4.494-1.355,3.206,3.206,0,0,1-1.485-2.672c-4.494,2.313-8.145,3.509-10.954,3.509-.4,0-.682-.04-.883-.04a6.917,6.917,0,0,1-4.133-1.795,5.489,5.489,0,0,1-.762-1,3,3,0,0,1-.2-.638c-.883.8-1.885,1.635-2.969,2.632A98.447,98.447,0,0,1-125.9-15.5a3.865,3.865,0,0,1-1.766.837Zm18.578-14.835a4.83,4.83,0,0,0-.642.638c3.25-1.317,5.056-2.513,5.417-3.51A11.387,11.387,0,0,0-109.333-29.493Zm19.14-.878q3.37-1.017,3.972-2.034A13.906,13.906,0,0,0-90.193-30.371Z" transform="translate(131 52.703)"/>
</svg>
