<?xml version="1.0" encoding="utf-8"?>
<!-- Generator: Adobe Illustrator 26.0.0, SVG Export Plug-In . SVG Version: 6.00 Build 0)  -->
<svg version="1.1" id="Layer_1" xmlns="http://www.w3.org/2000/svg" xmlns:xlink="http://www.w3.org/1999/xlink" x="0px" y="0px"
	 viewBox="0 0 500 230" style="enable-background:new 0 0 500 230;" xml:space="preserve">
<style type="text/css">
	.st0{fill:#ffffff;}
</style>
<g>
	<path class="st0" d="M440.9,68.5c-1.5-1.1-2.8-1.7-4.1-1.7c-0.5,0-0.8,0.2-1.1,0.5l-0.2,0.2c-9.3,16.6-18.3,31.2-26.9,43.6
		c-2.7-0.9-5.3-1.3-7.9-1.3c-2.8,0-5.5,0.5-8.1,1.5c-5.3,2.1-9.3,6-12.1,11.5c-4.7,2.9-10.2,4.8-16.4,5.7c1-1.9,1.5-3.7,1.5-5.5
		c0-3-1.2-5.4-3.6-7.3c-2.3-1.8-5.5-2.7-9.8-2.7c-1.8,0-3.5,0.2-5.1,0.7c-3.9,1.1-5.8,3-5.8,5.8c0,0.1,0,0.2,0,0.4
		c0.1,0.2,0.1,0.3,0.1,0.4c-1.2,0.8-2.3,1.6-3.5,2.7c-0.1,0.1-0.2,0.2-0.4,0.3c-4.5,2.6-9.7,4.3-15.6,5.2c1-1.9,1.5-3.7,1.5-5.5
		c0-3-1.2-5.4-3.6-7.3c-2.3-1.8-5.5-2.7-9.8-2.7c-1.8,0-3.5,0.2-5.1,0.7c-3.9,1.1-5.8,3-5.8,5.8c0,0.1,0,0.2,0,0.4
		c0.1,0.2,0.1,0.3,0.1,0.4c-1.2,0.8-2.3,1.6-3.5,2.7c-4.8,4.2-7.2,8.2-7.2,11.9c0,2.7,1.5,4.9,4.5,6.7c0.1,0,0.1,0.1,0.3,0.3
		c1.8,1,4.2,1.5,7.3,1.5c7.1,0,13.3-3.4,18.6-10.3c0.5,0,1.3,0.1,2.5,0.1c3.2,0,6.4-0.4,9.5-1.2c-0.3,1-0.5,1.9-0.5,2.9
		c0,2.7,1.5,4.9,4.5,6.7c0.1,0,0.1,0.1,0.3,0.3c1.8,1,4.3,1.5,7.3,1.5c7.1,0,13.3-3.4,18.6-10.3c0.5,0,1.3,0.1,2.5,0.1
		c5.1,0,10.1-1,14.9-2.9c0.1,4.2,1.7,7.4,5,9.5c1.2,0.7,2.5,1,4,1.1c2.2,0,4.7-0.9,7.4-2.7c4.6-3.2,10.3-9.7,17-19.6
		c0.7-1,1.2-1.7,1.4-2.1c0.1,0,0.1,0.1,0.3,0.1c0.2,0.1,0.3,0.2,0.4,0.2c-0.7,1.5-1.4,3-2,4.4c-9.5,21.3-14.2,35.1-14.2,41.5
		c0,1,0.1,1.8,0.2,2.2c0.1,0.5,0.5,1.1,1.1,1.6c1.4,1.1,2.8,1.7,4.1,1.7c0.6,0,0.9-0.3,1.1-0.7c0-0.2,0-0.5-0.1-0.8
		c-0.1-0.4-0.2-0.8-0.2-1.1c0-6,4.1-19,12.3-39c8-19.5,16.6-38.2,25.6-56.2C442.2,69.9,441.8,69.3,440.9,68.5z M309.2,133.8
		c-4.3,3.8-8.2,5.7-11.9,5.7c-0.9,0-1.7-0.1-2.6-0.4c-0.1-0.2-0.1-0.8,0-1.6c0.1-0.4,0.1-0.9,0.3-1.4c1-3.1,3.5-6.4,7.6-9.9
		c2.3,2.2,5.2,4.1,8.9,5.4C310.7,132.3,310,133.1,309.2,133.8z M313.8,128.7c-4.5-0.8-7.2-2.4-8.1-4.9c0.2-0.1,0.7-0.3,1.3-0.6
		c1.1-0.4,1.7-0.8,1.7-1.1c-0.1-0.5-0.8-1.2-2.1-2.2c0.4-0.4,0.9-0.7,1.7-1.1c2.3-1,4.7-1.5,7.4-1.5c0.5,0,0.9,0.1,1.1,0.2
		c0.4,0.6,0.6,1.3,0.6,2.3C317.3,122.4,316.2,125.3,313.8,128.7z M351.3,133.8c-4.3,3.8-8.2,5.7-11.9,5.7c-0.9,0-1.7-0.1-2.5-0.4
		c-0.1-0.2-0.1-0.8,0-1.6c0.1-0.4,0.1-0.9,0.3-1.4c1-3.1,3.5-6.4,7.6-9.9c2.3,2.2,5.2,4.1,8.9,5.4
		C352.9,132.3,352.1,133.1,351.3,133.8z M355.9,128.7c-4.5-0.8-7.2-2.4-8.1-4.9c0.2-0.1,0.7-0.3,1.3-0.6c1.1-0.4,1.7-0.8,1.7-1.1
		c-0.1-0.5-0.8-1.2-2.1-2.2c0.4-0.4,0.9-0.7,1.7-1.1c2.3-1,4.7-1.5,7.4-1.5c0.5,0,0.9,0.1,1.1,0.2c0.4,0.6,0.6,1.3,0.6,2.3
		C359.5,122.4,358.3,125.3,355.9,128.7z M384.8,136.8c-0.4-0.7-0.5-1.5-0.5-2.5c0-0.4,0-0.8,0.1-1.3c0.5-3.9,2.6-7.8,6.2-11.7
		c4.4-4.7,9.1-7.1,14.2-7.1c0.4,0,0.9,0,1.6,0.1C396.5,128.2,389.3,135.7,384.8,136.8z"/>
	<path class="st0" d="M307,91.1c3.4-2.6,12.4-9.5,21.8-8.2c3.5,0.5,7.3,2.3,8.5,2.8c5.4,2.4,8,4.7,12,7.6c0,0,17.1,12.2,31.8,12.9
		c1.6,0.1,3.3,0.1,3.3,0.1h0c0,0,15.4-0.2,29.7-19.8c1.6-2.2,1.8-3.2,0.5-4.2c-1.8-1.4-2.5,0.5-3.3,1.6c-2,2.6-13.2,15.5-26.2,17.5
		c-6.8,1-12.3-1.1-14.1-1.8c-1.7-0.7-4.1-1.8-20.1-14.1c-2.6-2-3.5-2.7-5.1-3.7c-3.4-2-8.2-4.9-14.4-5.8
		c-16.1-2.3-30.8,10.5-35.7,14.7c-8.3,7.2-13.1,15.5-16.3,21c-2.1,3.6-3.5,6.7-4.5,8.9c0.9-13-3.1-23-9.7-24.6
		c-1.2-0.3-3.4-0.5-5.9-0.2c-5.2,0.7-8.9,3.8-11.3,5.9c-1,0.8-1.9,1.8-2.3,2.1c-3.7,3.7-5.2,6.3-5.6,6.2c-0.2-0.1,0-0.9,1.6-4.4
		c1.3-3.1,2.9-8.1,2.4-14.2c-0.3-4.2-0.9-12.4-8.8-19.1c-7.3-6.2-16.6-7.5-19.2-7.8c-10-1.2-18.1,1.2-22.9,3.3
		c-7.4,3.3-14.2,7.8-20.9,12.6c-7.9,5.7-15.7,11.7-24.5,15.8c-8.5,3.9-17.2,5.7-26.4,3.9c-8.7-1.7-16.3-5.9-23-12.4
		c-1.6-1.6-3.1-3.2-4.6-5c0.6-1.2,1.3-2.5,1.9-3.7c0.6-1.2,1.5-2.7,2.6-4.6c2.8-5,4.1-7.9,4.1-8.9c-0.1-0.5-0.4-1.1-1.1-1.8
		c-1.4-1.2-2.8-1.8-4.1-1.8c-0.4,0-0.7,0.2-1,0.5c-0.5,1.3-2.7,5.6-6.6,13c-0.1,0.3-0.3,0.5-0.4,0.8c-1.3-2.1-2.6-4.2-3.8-6.4
		c-0.4-0.7-1.4-1.1-2.2-1.6c-0.1,0.9-0.3,1.8-0.4,2.8c0,0.2,0.1,0.5,0.2,0.8c1.1,2.5,2.1,5.1,3.5,7.4c0.2,0.4,0.4,0.7,0.6,1
		C67.7,117.8,58,141,58,149.6c0.1,5,2.6,7.6,7.7,7.7h0.6c0.9,0,2.4-0.7,4.4-2.1c3.2-2.2,9.9-7.8,20.1-17.1c2.7-2.5,5.2-4.6,7.4-6.6
		c0.1,0.6,0.3,1.1,0.5,1.6c0.5,0.8,1.1,1.7,1.9,2.5c2.6,2.5,6,4,10.3,4.5c0.5,0,1.2,0.1,2.2,0.1c7,0,16.1-3,27.3-8.8
		c-0.1,2.5,1.2,4.8,3.7,6.7c3,2.2,6.8,3.4,11.2,3.4h0.2c8.7-0.1,20.6-4.5,35.9-13.1c5.1-2.9,8.2-4.8,9.3-5.7
		c0.2-0.2,0.4-0.4,0.4-0.7c0-0.5-0.3-1.1-1-1.8c-1.3-1.4-2.5-2.1-3.7-2.1c-0.2,0-0.5,0.1-0.7,0.2c-1.3,0.9-3.9,2.5-7.6,4.6
		c-16.1,9.3-28.4,14-36.9,14.1h-0.1c-3,0-4.6-1-4.7-3c0.1-2.2,1.8-5.3,5.4-9.3c0.8-0.1,1.7-0.3,2.7-0.4c11.7-2.1,18.7-4.6,20.9-7.5
		c0.5-0.7,0.7-1.4,0.8-2.2c0-1.2-0.6-2.4-1.8-3.6c-2.1-1.9-4.5-2.9-7.4-2.9c-0.5,0-1.1,0.1-1.7,0.2c-2.1,0.4-4.5,1.4-7.1,2.8
		c-4.6,2.6-8.7,5.7-12.1,9.5c-0.8,0.5-1.6,1-2.4,1.5c-14.7,9.1-26.1,13.6-34.3,13.6c-0.8,0-1.5,0-1.9-0.1c-2.2-0.3-3.3-1.4-3.4-3.2
		c0-0.2,0-0.5,0.1-0.8c0.2-1.4,0.7-2.2,1.5-2.4l1.4-0.4c0.9-0.3,2.1-0.7,3.5-1.2c1.5-0.5,3.1-1.1,4.8-1.8c1.8-0.7,3.5-1.4,5.2-2.3
		c1.7-0.9,3.3-1.8,4.8-2.7c1.5-0.9,2.7-1.9,3.6-3c0.9-1.1,1.4-2.1,1.4-3.2c0-1.2-0.6-2.4-1.8-3.7c-2-2.1-4.4-3.1-7.2-3.1
		c-0.4,0-0.8,0-1.1,0.1c-0.6,0.1-1.2,0.2-1.9,0.4c-4,1.2-8.2,3.7-12.5,7.7c-0.9,0.9-1.8,1.7-2.5,2.6c-0.5,0.4-1.1,0.9-1.7,1.4
		c-2.6,2.1-8.5,7.5-17.8,16.1c-9,8.3-15.5,13.6-19.5,15.7c0.1-2.9,1.1-7.3,3.2-13.1c3.8-10.5,12-28.1,24.5-52.8
		c2.3,2.6,5,4.9,7.8,7.1c9.6,7.2,20.3,11.1,32,11.2c8.3,0.1,16.2-2.2,23.5-6.5c8-4.7,15.7-9.9,23.5-15c8.8-5.8,17.8-10.8,28.2-12
		c5.8-0.7,11.5-0.2,16.8,2.9c10.9,6.2,14.6,20.3,10.6,33.5c-1.9,6.1-5,11.2-8.6,16.2c-3.1,4.3-6,8.8-8.7,13.4
		c-1.6,2.7-0.4,6.5,2.3,8.5c1.2,0.9,2.4,1.3,3.5,1.3c2-0.1,3.3-1.7,3.8-2.4c7-8.9,11.3-18.5,11.3-18.5c6.9-15.3,17.5-21.8,20.8-21.9
		c1.5-0.1,2.6,0.5,2.6,0.5c1.7,0.8,2.1,2.6,2.3,3.6c1,5.1-0.6,10.9-0.6,10.9c-2.4,9.1-2.9,9.8-3.2,12.9c-0.6,7.3,1.6,9.1,2.7,9.7
		c1.2,0.6,2.4,0.9,3.5,0.8c2.5-0.1,4.2-1.9,5.5-3.4C277.5,131.5,289.4,104.8,307,91.1z M169.6,112.8c-1,1.7-4.3,3.4-9.9,5.1
		C163.4,115.3,166.8,113.6,169.6,112.8z M112,120.1c4.4-4,8.4-6.4,11.9-7.2c-0.9,2.5-5.4,5.5-13.5,8.8
		C110.9,121.1,111.4,120.6,112,120.1z"/>
	<path class="st0" d="M325,149l-6.7,17.6h1.6l1.8-5h8l1.8,5h1.6l-6.7-17.6H325z M322.2,160.4l3.5-9.6l3.5,9.6H322.2z"/>
	<path class="st0" d="M343.7,163c-0.6,1.7-1.9,2.6-4,2.6c-2,0-3-1.2-3-3.7v-8.3h-1.4v8.5c0,1.6,0.4,2.8,1.1,3.6
		c0.7,0.8,1.8,1.2,3.2,1.2c1.9,0,3.3-0.6,4.2-1.9l0,1.7h1.4v-13.1h-1.5V163z"/>
	<path class="st0" d="M352.8,165.6c-0.6,0-1.1-0.2-1.3-0.5c-0.3-0.4-0.4-0.9-0.4-1.6v-8.7h2.7v-1.2h-2.7v-3.4h-1.5v3.4h-2.4v1.2h2.4
		v8.8c0,1.1,0.2,2,0.7,2.6c0.5,0.6,1.2,0.9,2.2,0.9c0.7,0,1.2-0.1,1.6-0.2l-0.1-1.2C353.5,165.6,353.1,165.6,352.8,165.6z"/>
	<path class="st0" d="M362.6,153.3c-0.9,0-1.7,0.2-2.4,0.6c-0.7,0.4-1.4,1-1.8,1.8V148h-1.4v18.6h1.4v-9c0.3-1,0.8-1.7,1.5-2.3
		c0.7-0.6,1.5-0.8,2.4-0.8c1.1,0,1.9,0.3,2.3,0.9c0.5,0.6,0.7,1.4,0.7,2.6v8.6h1.4V158c0-1.6-0.4-2.8-1-3.6
		C365,153.7,364,153.3,362.6,153.3z"/>
	<path class="st0" d="M375.5,153.3c-1.1,0-2.1,0.3-3,0.8c-0.9,0.6-1.6,1.3-2.1,2.4c-0.5,1-0.7,2.1-0.7,3.4v0.3c0,2,0.5,3.6,1.6,4.9
		c1.1,1.2,2.5,1.8,4.2,1.8c1.1,0,2.2-0.3,3-0.8c0.9-0.5,1.6-1.3,2.1-2.3c0.5-1,0.7-2.2,0.7-3.4V160c0-2-0.5-3.6-1.6-4.9
		C378.7,153.9,377.3,153.3,375.5,153.3z M379.9,160.2c0,1.6-0.4,3-1.2,4c-0.8,1-1.9,1.5-3.2,1.5c-1.3,0-2.4-0.5-3.2-1.5
		s-1.2-2.3-1.2-3.9V160c0-1.6,0.4-3,1.2-4c0.8-1,1.9-1.5,3.2-1.5c0.9,0,1.6,0.2,2.3,0.7c0.7,0.5,1.2,1.1,1.6,1.9
		c0.4,0.8,0.6,1.7,0.6,2.8V160.2z"/>
	<path class="st0" d="M385.8,155.6l0-2.1h-1.4v13.1h1.4v-9c0.3-1,0.7-1.7,1.3-2.2s1.4-0.8,2.3-0.8c0.3,0,0.7,0,1,0.1l0-1.3
		c-0.2-0.1-0.6-0.2-1-0.2C387.8,153.3,386.6,154.1,385.8,155.6z"/>
</g>
</svg>
